<svg width="3102" height="3479" xmlns="http://www.w3.org/2000/svg" xmlns:xlink="http://www.w3.org/1999/xlink" xml:space="preserve" overflow="hidden"><defs><clipPath id="clip0"><rect x="398" y="209" width="3102" height="3479"/></clipPath></defs><g clip-path="url(#clip0)" transform="translate(-398 -209)"><path d="M1949.29 333.389C1896.45 333.389 1843.62 347.052 1796.28 374.378L661.954 1029.11C567.27 1083.76 508.942 1184.76 508.942 1294.06L508.942 2603.52C508.942 2712.82 567.27 2813.82 661.954 2868.47L1796.28 3523.2C1890.96 3577.85 2007.62 3577.85 2102.3 3523.2L3236.62 2868.47C3331.31 2813.82 3389.63 2712.82 3389.63 2603.52L3389.63 1294.06C3389.63 1184.76 3331.31 1083.76 3236.62 1029.11L2102.3 374.378C2054.96 347.052 2002.12 333.389 1949.29 333.389ZM1949 209C2005.9 209 2062.79 223.713 2113.77 253.138L3335.23 958.165C3437.2 1017.01 3500 1125.77 3500 1243.47L3500 2653.53C3500 2771.23 3437.2 2879.99 3335.23 2938.84L2113.77 3643.86C2011.81 3702.71 1886.19 3702.71 1784.23 3643.86L562.766 2938.84C460.809 2879.99 398 2771.23 398 2653.53L398 1243.47C398 1125.77 460.809 1017.01 562.767 958.165L1784.23 253.137C1835.21 223.712 1892.11 209 1949 209Z" fill="#0050FE" fill-rule="evenodd"/><path d="M1804.95 466.593C1894.09 415.135 2003.92 415.136 2093.05 466.593L3160.95 1083.06C3250.09 1134.52 3305 1229.62 3305 1332.53L3305 2565.47C3305 2668.38 3250.09 2763.48 3160.95 2814.94L2093.05 3431.41C2003.92 3482.86 1894.09 3482.86 1804.95 3431.41L737.051 2814.94C647.912 2763.48 593 2668.38 593 2565.47L593 1332.53C593 1229.62 647.912 1134.52 737.052 1083.06L1804.95 466.593Z" fill="#323232" fill-rule="evenodd"/><path d="M1453 928 1667.41 1214.91 1671 1967.15C1671 2027.26 1622.2 2076 1562 2076L1562 2076C1501.8 2076 1453 2027.26 1453 1967.15L1453 928 1453 928Z" fill="#FFFFFF" fill-rule="evenodd"/><path d="M1894.85 950C2252.59 1480.31 2502.03 1700.32 2520.08 1885.84 2520.28 1921.14 2520.49 1955.6 2520.69 1989.41L2521.23 2075.84 2309.41 2075.84 2309.41 1896.21C2309.41 1836.08 2260.69 1787.33 2200.59 1787.33 2140.49 1787.33 2091.77 1836.08 2091.77 1896.21L2091.77 2648.78C2091.77 2708.91 2140.49 2757.66 2200.59 2757.66L2200.59 2757.66C2260.69 2757.66 2309.41 2708.91 2309.41 2648.78L2309.41 2462.13 2523.68 2462.13 2523.77 2475.52C2524.18 2541.04 2524.59 2608.25 2525 2678.85 2518.44 2954.68 2206.64 3058.11 1983.46 2885.72L1373 2206C1602.74 2389.89 1886.64 2179.73 1904.69 2004.06Z" fill="#FFFFFF" fill-rule="evenodd"/></g></svg>