<svg width="3102" height="3479" xmlns="http://www.w3.org/2000/svg" xmlns:xlink="http://www.w3.org/1999/xlink" xml:space="preserve" overflow="hidden"><defs><clipPath id="clip0"><rect x="398" y="209" width="3102" height="3479"/></clipPath></defs><g clip-path="url(#clip0)" transform="translate(-398 -209)"><path d="M1949.29 333.389C1896.45 333.389 1843.62 347.052 1796.28 374.378L661.954 1029.11C567.27 1083.76 508.942 1184.76 508.942 1294.06L508.942 2603.52C508.942 2712.82 567.27 2813.82 661.954 2868.47L1796.28 3523.2C1890.96 3577.85 2007.62 3577.85 2102.3 3523.2L3236.62 2868.47C3331.31 2813.82 3389.63 2712.82 3389.63 2603.52L3389.63 1294.06C3389.63 1184.76 3331.31 1083.76 3236.62 1029.11L2102.3 374.378C2054.96 347.052 2002.12 333.389 1949.29 333.389ZM1949 209C2005.9 209 2062.79 223.713 2113.77 253.138L3335.23 958.165C3437.2 1017.01 3500 1125.77 3500 1243.47L3500 2653.53C3500 2771.23 3437.2 2879.99 3335.23 2938.84L2113.77 3643.86C2011.81 3702.71 1886.19 3702.71 1784.23 3643.86L562.766 2938.84C460.809 2879.99 398 2771.23 398 2653.53L398 1243.47C398 1125.77 460.809 1017.01 562.767 958.165L1784.23 253.137C1835.21 223.712 1892.11 209 1949 209Z" fill="#0050FE" fill-rule="evenodd"/><path d="M1804.95 466.593C1894.09 415.135 2003.92 415.136 2093.05 466.593L3160.95 1083.06C3250.09 1134.52 3305 1229.62 3305 1332.53L3305 2565.47C3305 2668.38 3250.09 2763.48 3160.95 2814.94L2093.05 3431.41C2003.92 3482.86 1894.09 3482.86 1804.95 3431.41L737.051 2814.94C647.912 2763.48 593 2668.38 593 2565.47L593 1332.53C593 1229.62 647.912 1134.52 737.052 1083.06L1804.95 466.593Z" fill="#323232" fill-rule="evenodd"/><path d="M1352 1676.47 1533 1572 1533 2381 1352 2381 1352 1676.47Z" fill="#FFFFFF" fill-rule="evenodd"/><path d="M1871 1239 1871 2381 1754.5 2381 1754.5 1648.48 1689 1615.34 1689 1346.38Z" fill="#FFFFFF" fill-rule="evenodd"/><path d="M2205 929 2205 2381 2095.8 2381 2095.8 1318.92 2023 1274.83 2023 1030.16Z" fill="#FFFFFF" fill-rule="evenodd"/><path d="M1581 1637 1626 1650.85 1626 1691 1581 1677.15Z" fill="#FFFFFF" fill-rule="evenodd"/><path d="M1581 1736 1626 1749.85 1626 1791 1581 1777.15Z" fill="#FFFFFF" fill-rule="evenodd"/><path d="M1581 1836 1626 1849.85 1626 1891 1581 1877.15Z" fill="#FFFFFF" fill-rule="evenodd"/><path d="M1581 1936 1626 1949.85 1626 1991 1581 1977.15Z" fill="#FFFFFF" fill-rule="evenodd"/><path d="M1581 2036 1626 2049.85 1626 2091 1581 2077.15Z" fill="#FFFFFF" fill-rule="evenodd"/><path d="M1581 2136 1626 2149.85 1626 2191 1581 2177.15Z" fill="#FFFFFF" fill-rule="evenodd"/><path d="M1581 2236 1626 2249.85 1626 2291 1581 2277.15Z" fill="#FFFFFF" fill-rule="evenodd"/><path d="M1660 1661 1705 1674.85 1705 1715 1660 1701.15Z" fill="#FFFFFF" fill-rule="evenodd"/><path d="M1660 1760 1705 1773.85 1705 1815 1660 1801.15Z" fill="#FFFFFF" fill-rule="evenodd"/><path d="M1660 1860 1705 1873.85 1705 1915 1660 1901.15Z" fill="#FFFFFF" fill-rule="evenodd"/><path d="M1660 1960 1705 1973.85 1705 2015 1660 2001.15Z" fill="#FFFFFF" fill-rule="evenodd"/><path d="M1660 2060 1705 2073.85 1705 2115 1660 2101.15Z" fill="#FFFFFF" fill-rule="evenodd"/><path d="M1660 2160 1705 2173.85 1705 2215 1660 2201.15Z" fill="#FFFFFF" fill-rule="evenodd"/><path d="M1660 2260 1705 2273.85 1705 2315 1660 2301.15Z" fill="#FFFFFF" fill-rule="evenodd"/><path d="M1916 1631 1960 1644.55 1960 1686 1916 1672.45Z" fill="#FFFFFF" fill-rule="evenodd"/><path d="M1916 1729 1960 1742.55 1960 1784 1916 1770.45Z" fill="#FFFFFF" fill-rule="evenodd"/><path d="M1916 1827 1960 1840.55 1960 1882 1916 1868.45Z" fill="#FFFFFF" fill-rule="evenodd"/><path d="M1916 1925 1960 1938.55 1960 1980 1916 1966.45Z" fill="#FFFFFF" fill-rule="evenodd"/><path d="M1916 2023 1960 2036.55 1960 2078 1916 2064.45Z" fill="#FFFFFF" fill-rule="evenodd"/><path d="M1916 2122 1960 2135.55 1960 2176 1916 2162.45Z" fill="#FFFFFF" fill-rule="evenodd"/><path d="M1916 2220 1960 2233.55 1960 2274 1916 2260.45Z" fill="#FFFFFF" fill-rule="evenodd"/><path d="M1916 1533 1960 1546.55 1960 1588 1916 1574.45Z" fill="#FFFFFF" fill-rule="evenodd"/><path d="M1916 1435 1960 1448.55 1960 1490 1916 1476.45Z" fill="#FFFFFF" fill-rule="evenodd"/><path d="M1916 1337 1960 1350.55 1960 1392 1916 1378.45Z" fill="#FFFFFF" fill-rule="evenodd"/><path d="M1995 1657 2040 1670.85 2040 1712 1995 1698.15Z" fill="#FFFFFF" fill-rule="evenodd"/><path d="M1995 1755 2040 1768.85 2040 1810 1995 1796.15Z" fill="#FFFFFF" fill-rule="evenodd"/><path d="M1995 1853 2040 1866.85 2040 1908 1995 1894.15Z" fill="#FFFFFF" fill-rule="evenodd"/><path d="M1995 1952 2040 1965.85 2040 2006 1995 1992.15Z" fill="#FFFFFF" fill-rule="evenodd"/><path d="M1995 2050 2040 2063.85 2040 2104 1995 2090.15Z" fill="#FFFFFF" fill-rule="evenodd"/><path d="M1995 2148 2040 2161.85 2040 2203 1995 2189.15Z" fill="#FFFFFF" fill-rule="evenodd"/><path d="M1995 2246 2040 2259.85 2040 2301 1995 2287.15Z" fill="#FFFFFF" fill-rule="evenodd"/><path d="M1995 1559 2040 1572.85 2040 1614 1995 1600.15Z" fill="#FFFFFF" fill-rule="evenodd"/><path d="M1995 1461 2040 1474.85 2040 1516 1995 1502.15Z" fill="#FFFFFF" fill-rule="evenodd"/><path d="M1995 1363 2040 1376.85 2040 1418 1995 1404.15Z" fill="#FFFFFF" fill-rule="evenodd"/><path d="M2246 1610 2290 1623.55 2290 1665 2246 1651.45Z" fill="#FFFFFF" fill-rule="evenodd"/><path d="M2246 1709 2290 1722.55 2290 1764 2246 1750.45Z" fill="#FFFFFF" fill-rule="evenodd"/><path d="M2246 1808 2290 1821.55 2290 1863 2246 1849.45Z" fill="#FFFFFF" fill-rule="evenodd"/><path d="M2246 1906 2290 1919.55 2290 1961 2246 1947.45Z" fill="#FFFFFF" fill-rule="evenodd"/><path d="M2246 2005 2290 2018.55 2290 2060 2246 2046.45Z" fill="#FFFFFF" fill-rule="evenodd"/><path d="M2246 2104 2290 2117.55 2290 2159 2246 2145.45Z" fill="#FFFFFF" fill-rule="evenodd"/><path d="M2246 2203 2290 2216.55 2290 2257 2246 2243.45Z" fill="#FFFFFF" fill-rule="evenodd"/><path d="M2246 1511 2290 1524.55 2290 1566 2246 1552.45Z" fill="#FFFFFF" fill-rule="evenodd"/><path d="M2246 1413 2290 1426.55 2290 1468 2246 1454.45Z" fill="#FFFFFF" fill-rule="evenodd"/><path d="M2246 1314 2290 1327.55 2290 1369 2246 1355.45Z" fill="#FFFFFF" fill-rule="evenodd"/><path d="M2246 1215 2290 1228.55 2290 1270 2246 1256.45Z" fill="#FFFFFF" fill-rule="evenodd"/><path d="M2246 1117 2290 1130.55 2290 1171 2246 1157.45Z" fill="#FFFFFF" fill-rule="evenodd"/><path d="M2246 1018 2290 1031.55 2290 1073 2246 1059.45Z" fill="#FFFFFF" fill-rule="evenodd"/><path d="M2326 1634 2371 1647.85 2371 1689 2326 1675.15Z" fill="#FFFFFF" fill-rule="evenodd"/><path d="M2326 1733 2371 1746.85 2371 1788 2326 1774.15Z" fill="#FFFFFF" fill-rule="evenodd"/><path d="M2326 1832 2371 1845.85 2371 1887 2326 1873.15Z" fill="#FFFFFF" fill-rule="evenodd"/><path d="M2326 1930 2371 1943.85 2371 1985 2326 1971.15Z" fill="#FFFFFF" fill-rule="evenodd"/><path d="M2326 2029 2371 2042.85 2371 2084 2326 2070.15Z" fill="#FFFFFF" fill-rule="evenodd"/><path d="M2326 2128 2371 2141.85 2371 2183 2326 2169.15Z" fill="#FFFFFF" fill-rule="evenodd"/><path d="M2326 2227 2371 2240.85 2371 2281 2326 2267.15Z" fill="#FFFFFF" fill-rule="evenodd"/><path d="M2326 1535 2371 1548.85 2371 1590 2326 1576.15Z" fill="#FFFFFF" fill-rule="evenodd"/><path d="M2326 1437 2371 1450.85 2371 1492 2326 1478.15Z" fill="#FFFFFF" fill-rule="evenodd"/><path d="M2326 1338 2371 1351.85 2371 1393 2326 1379.15Z" fill="#FFFFFF" fill-rule="evenodd"/><path d="M2326 1239 2371 1252.85 2371 1294 2326 1280.15Z" fill="#FFFFFF" fill-rule="evenodd"/><path d="M2326 1141 2371 1154.85 2371 1195 2326 1181.15Z" fill="#FFFFFF" fill-rule="evenodd"/><path d="M2326 1042 2371 1055.85 2371 1097 2326 1083.15Z" fill="#FFFFFF" fill-rule="evenodd"/><text fill="#FFFFFF" font-family="Segoe UI,Segoe UI_MSFontService,sans-serif" font-weight="400" font-size="147" transform="matrix(1 0 0 1 1397.06 2839)">INMOBILIARIA</text><path d="M1615.26 2412.55 1688.37 2412.55 1775.28 2530.47C1776.36 2532.02 1777.67 2533.87 1779.22 2536.02 1780.78 2538.17 1782.33 2540.38 1783.88 2542.65 1785.44 2544.92 1786.9 2547.13 1788.27 2549.28 1789.65 2551.43 1790.69 2553.34 1791.41 2555.02L1792.13 2555.02C1791.41 2549.76 1791.05 2540.68 1791.05 2527.78L1791.05 2412.55 1862.73 2412.55 1862.73 2669.53 1794.81 2669.53 1704.14 2545.52C1696.97 2535.72 1691.12 2526.88 1686.58 2519L1685.86 2519C1686.58 2531.66 1686.94 2545.88 1686.94 2561.65L1686.94 2669.53 1615.26 2669.53Z" stroke="#323232" stroke-width="16" stroke-linejoin="round" stroke-miterlimit="10" fill="#FFFFFF" fill-rule="evenodd"/><text fill="#000000" fill-opacity="0" font-family="Arial,Arial_MSFontService,sans-serif" font-size="256.972" x="1615.26" y="2637.4">N</text><path d="M1500.77 2474.2C1485.36 2474.2 1473.35 2480.05 1464.75 2491.76 1456.15 2503.47 1451.85 2520.01 1451.85 2541.4 1451.85 2562.3 1456.12 2578.61 1464.66 2590.32 1473.2 2602.03 1484.82 2607.88 1499.51 2607.88 1508.47 2607.88 1516.54 2605.25 1523.71 2600 1530.87 2594.74 1536.43 2587.21 1540.37 2577.42 1544.31 2567.62 1546.28 2555.97 1546.28 2542.47 1546.28 2521.33 1542.22 2504.66 1534.1 2492.48 1525.98 2480.29 1514.87 2474.2 1500.77 2474.2ZM1501.48 2408.25C1526.09 2408.25 1548.11 2413.72 1567.52 2424.65 1586.93 2435.58 1601.93 2451.17 1612.5 2471.42 1623.07 2491.67 1628.36 2514.64 1628.36 2540.32 1628.36 2566.13 1622.8 2589.21 1611.69 2609.58 1600.58 2629.95 1585.05 2645.78 1565.1 2657.07 1545.15 2668.36 1522.81 2674.01 1498.08 2674.01 1473.95 2674.01 1452 2668.54 1432.22 2657.61 1412.45 2646.68 1397.07 2631.33 1386.08 2611.55 1375.09 2591.78 1369.59 2569.41 1369.59 2544.44 1369.59 2518.28 1375.15 2494.75 1386.26 2473.84 1397.37 2452.93 1412.96 2436.78 1433.03 2425.37 1453.1 2413.96 1475.92 2408.25 1501.48 2408.25Z" stroke="#323232" stroke-width="16" stroke-linejoin="round" stroke-miterlimit="10" fill="#FFFFFF" fill-rule="evenodd"/><text fill="#000000" fill-opacity="0" font-family="Arial,Arial_MSFontService,sans-serif" font-size="265.752" x="1369.59" y="2640.79">O</text><path d="M1299.32 2412.55 1376.73 2412.55 1376.73 2669.53 1299.32 2669.53Z" stroke="#323232" stroke-width="16" stroke-linejoin="round" stroke-miterlimit="10" fill="#FFFFFF" fill-rule="evenodd"/><text fill="#000000" fill-opacity="0" font-family="Arial,Arial_MSFontService,sans-serif" font-size="256.972" x="1299.32" y="2637.4">I</text><path d="M1054.74 2412.55 1127.85 2412.55 1214.76 2530.47C1215.84 2532.02 1217.15 2533.87 1218.71 2536.02 1220.26 2538.17 1221.81 2540.38 1223.37 2542.65 1224.92 2544.92 1226.38 2547.13 1227.76 2549.28 1229.13 2551.43 1230.17 2553.34 1230.89 2555.02L1231.61 2555.02C1230.89 2549.76 1230.53 2540.68 1230.53 2527.78L1230.53 2412.55 1302.21 2412.55 1302.21 2669.53 1234.3 2669.53 1143.62 2545.52C1136.45 2535.72 1130.6 2526.88 1126.06 2519L1125.34 2519C1126.06 2531.66 1126.42 2545.88 1126.42 2561.65L1126.42 2669.53 1054.74 2669.53Z" stroke="#323232" stroke-width="16" stroke-linejoin="round" stroke-miterlimit="10" fill="#FFFFFF" fill-rule="evenodd"/><text fill="#000000" fill-opacity="0" font-family="Arial,Arial_MSFontService,sans-serif" font-size="256.972" x="1054.74" y="2637.4">N</text><path d="M837.162 2412.55 914.935 2412.55 914.935 2556.45C914.935 2572.94 918.011 2585.63 924.163 2594.53 930.316 2603.43 939.126 2607.88 950.595 2607.88 962.183 2607.88 970.994 2603.7 977.027 2595.34 983.06 2586.98 986.077 2574.61 986.077 2558.24L986.077 2412.55 1064.03 2412.55 1064.03 2552.15C1064.03 2593.37 1054.62 2623.98 1035.8 2643.99 1016.99 2664 987.988 2674.01 948.803 2674.01 912.247 2674.01 884.5 2664 865.565 2643.99 846.63 2623.98 837.162 2593.84 837.162 2553.58Z" stroke="#323232" stroke-width="16" stroke-linejoin="round" stroke-miterlimit="10" fill="#FFFFFF" fill-rule="evenodd"/><text fill="#000000" fill-opacity="0" font-family="Arial,Arial_MSFontService,sans-serif" font-size="261.452" x="837.162" y="2641.32">U</text><path d="M2951.99 2412.55 3112.01 2412.55 3112.01 2473.12 3029.4 2473.12 3029.4 2510.58 3107 2510.58 3107 2571.15 3029.4 2571.15 3029.4 2608.96 3117.93 2608.96 3117.93 2669.53 2951.99 2669.53Z" stroke="#323232" stroke-width="16" stroke-linejoin="round" stroke-miterlimit="10" fill="#FFFFFF" fill-rule="evenodd"/><text fill="#000000" fill-opacity="0" font-family="Arial,Arial_MSFontService,sans-serif" font-size="256.972" x="2951.99" y="2637.4">E</text><path d="M2820.5 2564.87 2820.5 2617.38 2846.3 2617.38C2856.82 2617.38 2865.12 2614.96 2871.21 2610.12 2877.3 2605.28 2880.35 2598.68 2880.35 2590.32 2880.35 2582.91 2877.66 2576.82 2872.29 2572.04 2866.91 2567.26 2859.8 2564.87 2850.96 2564.87ZM2820.5 2464.34 2820.5 2512.91 2842.9 2512.91C2851.5 2512.91 2858.55 2510.61 2864.04 2506.01 2869.54 2501.41 2872.29 2495.46 2872.29 2488.18 2872.29 2472.29 2859.8 2464.34 2834.83 2464.34ZM2743.08 2412.55 2852.22 2412.55C2920.43 2412.55 2954.54 2433.28 2954.54 2474.74 2954.54 2483.7 2952.39 2491.91 2948.09 2499.38 2943.79 2506.84 2937.25 2513.38 2928.47 2519 2919.69 2524.61 2910.04 2528.44 2899.53 2530.47L2899.53 2531.18C2911.71 2532.62 2922.64 2536.23 2932.32 2542.03 2942 2547.82 2949.46 2555.05 2954.72 2563.71 2959.98 2572.37 2962.6 2581.36 2962.6 2590.68 2962.6 2615.89 2953.76 2635.33 2936.08 2649.01 2918.4 2662.69 2893.13 2669.53 2860.28 2669.53L2743.08 2669.53Z" stroke="#323232" stroke-width="16" stroke-linejoin="round" stroke-miterlimit="10" fill="#FFFFFF" fill-rule="evenodd"/><text fill="#000000" fill-opacity="0" font-family="Arial,Arial_MSFontService,sans-serif" font-size="256.972" x="2743.08" y="2637.4">B</text><path d="M2666.01 2412.55 2743.43 2412.55 2743.43 2669.53 2666.01 2669.53Z" stroke="#323232" stroke-width="16" stroke-linejoin="round" stroke-miterlimit="10" fill="#FFFFFF" fill-rule="evenodd"/><text fill="#000000" fill-opacity="0" font-family="Arial,Arial_MSFontService,sans-serif" font-size="256.972" x="2666.01" y="2637.4">I</text><path d="M2539.56 2466.13 2539.56 2524.91 2553.54 2524.91C2563.94 2524.91 2572.3 2521.99 2578.63 2516.13 2584.96 2510.28 2588.13 2502.93 2588.13 2494.09 2588.13 2485.49 2585.5 2478.68 2580.24 2473.66 2574.99 2468.64 2566.74 2466.13 2555.51 2466.13ZM2462.15 2412.55 2565.01 2412.55C2600.97 2412.55 2627.52 2418.44 2644.67 2430.21 2661.81 2441.97 2670.38 2459.62 2670.38 2483.16 2670.38 2500.84 2665.39 2515.65 2655.42 2527.6 2645.44 2539.55 2630.6 2548.21 2610.89 2553.58L2610.89 2554.3C2621.76 2557.65 2630.81 2563.08 2638.03 2570.61 2645.26 2578.13 2651.74 2589.3 2657.48 2604.12L2682.75 2669.53 2595.48 2669.53 2576.3 2614.15C2572.6 2603.28 2567.79 2594.74 2561.88 2588.53 2555.96 2582.32 2549.54 2579.21 2542.61 2579.21L2539.56 2579.21 2539.56 2669.53 2462.15 2669.53Z" stroke="#323232" stroke-width="16" stroke-linejoin="round" stroke-miterlimit="10" fill="#FFFFFF" fill-rule="evenodd"/><text fill="#000000" fill-opacity="0" font-family="Arial,Arial_MSFontService,sans-serif" font-size="256.972" x="2462.15" y="2637.4">R</text><path d="M2341.57 2468.46C2341.33 2471.33 2340.5 2476.05 2339.06 2482.62 2337.63 2489.19 2330.4 2517.39 2317.38 2567.2L2366.48 2567.2 2348.56 2497.32C2346.05 2487.04 2344.32 2477.42 2343.37 2468.46ZM2296.77 2412.55 2392.82 2412.55 2476.15 2669.53 2392.11 2669.53 2380.82 2622.22 2304.12 2622.22 2291.94 2669.53 2208.25 2669.53Z" stroke="#323232" stroke-width="16" stroke-linejoin="round" stroke-miterlimit="10" fill="#FFFFFF" fill-rule="evenodd"/><text fill="#000000" fill-opacity="0" font-family="Arial,Arial_MSFontService,sans-serif" font-size="256.972" x="2208.25" y="2637.4">A</text><path d="M2151.87 2408.25C2174.09 2408.25 2195.6 2410.94 2216.38 2416.32L2216.38 2487.82C2209.22 2483.52 2200.67 2480.17 2190.76 2477.78 2180.84 2475.39 2170.81 2474.2 2160.65 2474.2 2139.63 2474.2 2123.05 2480.23 2110.92 2492.3 2098.8 2504.36 2092.74 2520.73 2092.74 2541.4 2092.74 2561.95 2098.8 2578.16 2110.92 2590.05 2123.05 2601.94 2139.27 2607.88 2159.58 2607.88 2178.33 2607.88 2197.27 2603.1 2216.38 2593.55L2216.38 2662.54C2195.12 2670.18 2170.57 2674.01 2142.73 2674.01 2115.37 2674.01 2091.78 2668.78 2071.95 2658.33 2052.12 2647.87 2036.97 2633 2026.52 2613.71 2016.07 2594.41 2010.84 2572.16 2010.84 2546.95 2010.84 2519.84 2016.7 2495.7 2028.4 2474.56 2040.11 2453.41 2056.66 2437.08 2078.04 2425.55 2099.43 2414.02 2124.04 2408.25 2151.87 2408.25Z" stroke="#323232" stroke-width="16" stroke-linejoin="round" stroke-miterlimit="10" fill="#FFFFFF" fill-rule="evenodd"/><text fill="#000000" fill-opacity="0" font-family="Arial,Arial_MSFontService,sans-serif" font-size="265.752" x="2010.84" y="2640.79">C</text></g></svg>