<svg width="274" height="271" viewBox="0 0 274 271" fill="none" xmlns="http://www.w3.org/2000/svg">
<path d="M133.893 53.6769L120.211 44.6558C113.132 39.988 109.592 37.6541 105.864 36.8731C101.983 36.0603 97.9488 36.4191 94.2727 37.9039C90.7406 39.3306 87.6682 42.2526 81.5235 48.0965L37.8851 89.5988C34.2792 93.0282 32.4762 94.7429 31.177 96.7637C29.9762 98.6314 29.0948 100.686 28.5689 102.843C28 105.177 28 107.665 28 112.642V184.729C28 188.552 28 190.464 28.3234 192.241C29.0859 196.43 31.1654 200.266 34.2592 203.191C35.5712 204.432 37.1731 205.475 40.377 207.562C50.0512 213.864 54.8883 217.014 58.7623 217.751C68.0987 219.528 77.3956 214.488 81.0031 205.695C82.5 202.047 82.5 196.274 82.5 184.729V153.074C82.5 148.122 82.5 145.646 83.0639 143.321C83.5852 141.173 84.459 139.126 85.6497 137.264C86.9381 135.249 88.7263 133.536 92.3027 130.11L159.083 66.1415C165.585 59.9134 168.836 56.7994 172.611 55.3564C176.085 54.0286 179.86 53.6957 183.513 54.3951C187.483 55.1552 191.229 57.6523 198.72 62.6466L259.339 103.06C264.462 106.475 267.023 108.182 268.888 110.429C270.61 112.503 271.895 114.903 272.665 117.486C273.5 120.284 273.5 123.362 273.5 129.519V201.117C273.5 220.062 273.5 229.535 269.606 234.824C266.062 239.637 260.551 242.613 254.583 242.937C248.024 243.293 240.103 238.098 224.261 227.708L180.361 198.918C175.168 195.512 172.571 193.81 170.68 191.556C168.934 189.475 167.63 187.06 166.847 184.459C166 181.641 166 178.536 166 172.326V117.5C166 109.492 172.492 103 180.5 103C188.508 103 195 109.492 195 117.5V161.449C195 164.191 195 165.562 195.167 166.846C195.798 171.702 198.19 176.158 201.888 179.369C202.865 180.217 204.007 180.975 206.292 182.491C213.31 187.146 216.819 189.474 219.539 190.323C230.229 193.661 241.576 187.571 244.704 176.818C245.5 174.082 245.5 169.871 245.5 161.449V144.519C245.5 138.362 245.5 135.284 244.665 132.486C243.895 129.903 242.61 127.503 240.888 125.429C239.023 123.182 236.462 121.475 231.34 118.06L231.339 118.06L202.289 98.6928C194.775 93.6835 191.018 91.1789 187.038 90.4207C183.376 89.723 179.592 90.0628 176.113 91.4016C172.332 92.8566 169.081 95.9904 162.579 102.258L162.579 102.258L121.23 142.12C117.679 145.543 115.904 147.254 114.626 149.264C113.444 151.122 112.577 153.162 112.06 155.302C111.5 157.618 111.5 160.083 111.5 165.014V228.729C111.5 247.782 111.5 257.309 107.587 262.606C104.026 267.426 98.4911 270.396 92.5057 270.697C85.928 271.028 77.9905 265.76 62.1154 255.225L14.2154 223.434C9.07353 220.022 6.5026 218.316 4.63036 216.067C2.90197 213.991 1.61197 211.587 0.838188 208.999C0 206.196 0 203.11 0 196.939V100.619C0 95.6507 0 93.1666 0.567235 90.8359C1.09151 88.6817 1.97033 86.6296 3.16773 84.7637C4.46324 82.7449 6.26118 81.0308 9.85705 77.6026L78.0526 12.5872L78.0526 12.5872C84.5655 6.37799 87.8219 3.27341 91.5988 1.83929C95.0741 0.519688 98.8483 0.194765 102.498 0.900986C106.464 1.6685 110.204 4.17085 117.682 9.17555L149.368 30.381C155.982 34.8074 157.574 43.8539 152.867 50.2719C148.46 56.2814 140.115 57.779 133.893 53.6769Z" fill="#0050FE"/>
</svg>
